<svg width="5" height="8" viewBox="0 0 5 8" fill="none" xmlns="http://www.w3.org/2000/svg">
<path d="M0.0957179 0.0941417C0.034354 0.155688 0 0.23831 0 0.324344C0 0.410379 0.034354 0.493 0.0957179 0.554546L3.52404 4L0.0957179 7.44476C0.034354 7.50631 0 7.58893 0 7.67497C0 7.761 0.034354 7.84362 0.0957179 7.90517C0.125545 7.93518 0.161207 7.95903 0.200599 7.97532C0.23999 7.99161 0.282313 8 0.32507 8C0.367826 8 0.410149 7.99161 0.449541 7.97532C0.488933 7.95903 0.524595 7.93518 0.554422 7.90517L4.20013 4.24054C4.26416 4.17619 4.3 4.08987 4.3 4C4.3 3.91013 4.26416 3.82382 4.20013 3.75946L0.554422 0.0948311C0.524595 0.0648197 0.488933 0.0409663 0.449541 0.0246788C0.410149 0.00839136 0.367826 0 0.32507 0C0.282313 0 0.23999 0.00839136 0.200599 0.0246788C0.161207 0.0409663 0.125545 0.0648197 0.0957179 0.0948311V0.0941417Z" fill="#4F4F4F"/>
</svg>
