<svg width="180" height="52" viewBox="0 0 180 52" fill="none" xmlns="http://www.w3.org/2000/svg">
<g clip-path="url(#clip0_404_2)" filter="url(#filter0_i_404_2)">
<path d="M2.51587 41.2237L25.942 35.647C26.1415 35.5982 26.7109 35.4784 27.2058 35.508C27.6008 35.5294 27.8377 35.5464 28.2034 35.6991C28.7006 35.9019 29.0776 36.315 29.2917 36.5425L37.8153 45.5529H37.9159L-0.0253906 45.5785L2.51587 41.2237ZM40.1209 45.5516L23.5753 28.0575C23.4362 27.9103 23.0442 27.4767 22.8211 27.034C22.6435 26.681 22.5425 26.4691 22.4894 26.0774C22.4179 25.5442 22.5878 25.011 22.6751 24.7121L26.2196 12.8275L26.1699 12.7402L45.1627 45.5776L40.1209 45.5516Z" fill="#FAA634"/>
<path d="M24.984 10.7977L18.1013 33.8696C18.0435 34.0635 17.8659 34.619 17.5928 35.0345C17.3754 35.364 17.2406 35.5587 16.9281 35.801C16.501 36.127 15.9554 36.2492 15.6519 36.3206L3.5861 39.1972L3.53516 39.2819L22.4848 6.42188L24.984 10.7977Z" fill="#9D9FA2"/>
<path d="M52.6329 17.8889H57.8035C61.4057 17.8889 63.0658 20.109 63.0658 22.7388C63.0658 25.3256 61.3128 27.4516 57.4819 27.4516H55.0099V34.4106H52.634V17.8889H52.6329ZM55.0099 25.3279H57.7106C59.4659 25.3279 60.6209 24.2852 60.6209 22.6482C60.6209 21.4256 59.9505 20.014 57.8046 20.014H55.0099V25.3279ZM86.4568 32.288H93.9137V34.4118H84.0799V17.8889H86.4568V32.288ZM94.8298 17.8901L99.2835 23.5924L103.759 17.8901H106.623L100.484 25.689V34.4118H98.1059V25.6653L91.9648 17.8901H94.8298ZM110.999 17.8901L116.47 24.6758L121.964 17.8901H124.181V34.4118H121.801V21.5592H121.756L116.656 27.951H116.286L111.182 21.5592H111.139V34.4118H108.761V17.8901H110.999ZM168.179 34.4118H165.757L163.54 29.5437H156.522L154.422 34.4118H152.001L159.11 17.7995H160.769L168.179 34.4118ZM157.448 27.42H162.568L159.918 21.4188L157.448 27.42ZM172.569 32.288H180.025V34.4118H170.194V17.8889H172.569V32.288ZM137.723 17.9183V20.0376H130.102V24.8627H137.556V26.9864H130.102V32.3207H138.011V34.44H127.716V17.9183H137.723ZM153.224 17.9183V20.0376H147.648V34.44H145.274V20.0376H139.699V17.9183H153.224ZM72.997 17.7725C78.2083 17.7725 81.4968 21.659 81.4968 26.2643C81.4968 30.7258 78.2978 34.7504 72.9494 34.7504C67.7811 34.7504 64.5118 30.7485 64.5118 26.2643C64.5118 21.6873 67.8717 17.7725 72.997 17.7725ZM72.997 32.578C76.5505 32.578 79.1539 29.8734 79.1539 26.2655C79.1539 22.6337 76.5505 19.9506 72.997 19.9506C69.4616 19.9506 66.8571 22.6337 66.8571 26.2655C66.8571 29.8734 69.4616 32.578 72.997 32.578ZM85.3731 38.2871H85.92V45.195H85.3731V38.2871ZM87.2246 38.2956H87.7308L92.9194 44.3229V38.2956H93.4562V45.1946H93.0112L87.7715 39.1356V45.1946H87.2246V38.2956ZM94.1107 38.2871H99.8169V38.7411H97.2373V45.194H96.6892V38.7411H94.1107V38.2871ZM100.543 38.2956H104.316V38.7508H101.09V41.4926H104.233V41.9489H101.09V44.7382H104.396V45.1946H100.543V38.2956ZM107.178 38.2956C109.291 38.2956 109.543 39.3982 109.543 40.0866C109.543 40.9255 109.008 41.5232 108.259 41.745C108.512 41.8969 108.866 42.3225 109.007 42.5432C109.007 42.5432 110.585 44.9704 110.736 45.1934H110.109L108.814 43.1714C108.227 42.2612 107.914 41.8854 107.124 41.8854H106.043V45.1934H105.496V38.2956H107.178ZM106.044 41.4315H107.196C108.481 41.4315 108.967 40.8451 108.967 40.0866C108.967 39.1968 108.378 38.7508 106.953 38.7508H106.044V41.4315ZM111.292 38.2956H111.798L116.988 44.3229V38.2956H117.523V45.1946H117.076L111.837 39.1356V45.1946H111.292V38.2956ZM121.344 38.2446H121.658L124.843 45.1946H124.287L123.194 42.807H119.825L118.733 45.1946H118.177L121.344 38.2446ZM121.504 39.1175L120.009 42.3508H122.981L121.504 39.1175ZM124.922 38.2866H130.63V38.7406H128.048V45.1934H127.501V38.7406H124.922V38.2866ZM131.353 38.2855H131.9V45.1934H131.353V38.2855ZM140.336 41.7146C140.336 43.7286 138.757 45.2841 136.694 45.2841C134.66 45.2841 133.042 43.749 133.042 41.7452C133.042 39.7335 134.619 38.2062 136.694 38.2062C138.726 38.2062 140.336 39.7108 140.336 41.7146ZM139.758 41.7146C139.758 40.0459 138.413 38.6919 136.694 38.6919C134.933 38.6919 133.618 40.0854 133.618 41.7869C133.618 43.4647 134.962 44.7995 136.672 44.7995C138.465 44.7995 139.758 43.415 139.758 41.7146ZM141.527 38.2957H142.032L147.219 44.3229V38.2957H147.758V45.1946H147.311L142.073 39.1357V45.1946H141.527V38.2957ZM151.579 38.2448H151.891L155.077 45.1946H154.521L153.429 42.807H150.06L148.967 45.1946H148.411L151.579 38.2448ZM151.74 39.1175L150.244 42.3509H153.217L151.74 39.1175ZM155.804 38.2867H156.351V44.7384H159.761V45.1934H155.804V38.2867ZM164.297 38.2952H166.272C167.35 38.2952 168.435 38.7401 168.435 40.1349C168.435 41.5002 167.35 41.9677 166.272 41.9677H164.843V45.1919H164.297V38.2952ZM164.844 38.7492V41.5012H166.131C167.059 41.5226 167.86 41.2185 167.86 40.136C167.86 39.0549 167.059 38.7492 166.131 38.7492H164.844ZM169.456 38.285H170.001V44.7368H173.41V45.1919H169.456V38.285ZM177.587 44.7979C178.479 44.7979 179.259 44.474 180.025 44.0881V44.6462C179.246 45.0403 178.467 45.2825 177.587 45.2825C175.515 45.2825 173.917 43.8062 173.917 41.7741C173.917 39.7907 175.464 38.2035 177.527 38.2035C178.54 38.2035 179.258 38.4663 179.956 38.7809V39.357C179.227 38.9848 178.59 38.6915 177.609 38.6915C175.758 38.6915 174.492 40.0035 174.492 41.7548C174.491 43.5039 175.799 44.7979 177.587 44.7979Z" fill="#717073"/>
</g>
<defs>
<filter id="filter0_i_404_2" x="0" y="0" width="180" height="52" filterUnits="userSpaceOnUse" color-interpolation-filters="sRGB">
<feFlood flood-opacity="0" result="BackgroundImageFix"/>
<feBlend mode="normal" in="SourceGraphic" in2="BackgroundImageFix" result="shape"/>
<feColorMatrix in="SourceAlpha" type="matrix" values="0 0 0 0 0 0 0 0 0 0 0 0 0 0 0 0 0 0 127 0" result="hardAlpha"/>
<feOffset dx="1000" dy="1000"/>
<feComposite in2="hardAlpha" operator="arithmetic" k2="-1" k3="1"/>
<feColorMatrix type="matrix" values="0 0 0 0 0 0 0 0 0 0 0 0 0 0 0 0 0 0 1 0"/>
<feBlend mode="normal" in2="shape" result="effect1_innerShadow_404_2"/>
</filter>
<clipPath id="clip0_404_2">
<rect width="180" height="52" fill="white"/>
</clipPath>
</defs>
</svg>
