<svg width="112" height="75" viewBox="0 0 112 75" fill="none" xmlns="http://www.w3.org/2000/svg">
<path fill-rule="evenodd" clip-rule="evenodd" d="M64.4454 11.7465C68.0596 20.9279 62.1455 26.8402 56.2626 32.7526C50.7553 38.8057 45.9676 45.0779 55.6524 56.3864C52.0382 47.2051 57.9524 41.2927 63.8196 35.3803C69.2957 29.3428 74.1302 23.0551 64.4298 11.7465H64.4454ZM55.6681 0C59.3136 9.18137 53.3994 15.0937 47.5009 21.0061C42.0249 27.0436 37.1903 33.3313 46.922 44.6399C43.2765 35.4273 49.1907 29.5462 55.0579 23.6338C60.5653 17.5494 65.3998 11.2773 55.6681 0Z" fill="#1D1D1B"/>
<path fill-rule="evenodd" clip-rule="evenodd" d="M45.3574 62.502H30.6816V65.1922H35.4849V74.8585H40.8827V65.1922H45.3574V62.502ZM60.0802 62.502V68.6802L51.4124 62.502H47.2037V74.8585H50.9117V68.0546L59.8299 74.8585H63.7883V62.502H60.0802ZM72.1745 72.1838V70.0254H79.2465V67.3194H72.1745V65.1922H81.2491V62.502H66.761V74.8585H81.3587V72.1995H72.1745V72.1838ZM83.7994 62.502V74.8585H89.2285V70.3538H95.1896V67.6479H89.2285V65.2079H101.026V74.8741H106.455V65.2079H111.367V62.5176H83.7994V62.502ZM25.7219 62.502H21.56V65.5051L21.6226 65.3956L24.0164 70.1661H21.5444V72.7469H25.3463L26.4572 74.8585H32.4652L25.7062 62.502H25.7219ZM21.56 62.502H19.8859L13.1269 74.8585H16.6629L17.7737 72.7469H21.56V70.1661H19.1193L21.56 65.5051V62.502ZM15.0044 62.502H0V65.1922H4.80328V74.8585H10.2011V65.1922H15.0044V62.502Z" fill="#1D1D1B"/>
</svg>
