<svg width="141" height="82" viewBox="0 0 141 82" fill="none" xmlns="http://www.w3.org/2000/svg">
<path d="M54.7177 30.7553L55.4063 30.3646C55.2202 29.3971 55.0154 28.318 54.9224 27.2575C54.3454 27.5552 53.7499 27.8342 53.266 28.1319C44.5931 33.0997 39.4377 41.7513 38.563 50.9984C46.9381 54.887 57.0627 54.701 65.7356 49.7332C71.8587 46.2353 76.3441 40.6908 78.5775 34.5509C77.7027 33.9741 76.828 33.5834 75.8602 33.1927C73.8129 38.9419 69.8301 43.891 64.1722 47.1098C57.1558 51.2031 48.9854 51.6868 41.8758 49.0634C43.2344 41.6583 47.7198 34.8486 54.7363 30.7739L54.7177 30.7553ZM46.4356 46.4214C48.092 41.4537 51.4979 37.0813 56.4671 34.1602C56.0763 33.1927 55.7785 32.2066 55.5924 31.1461L55.1085 31.4438C48.4829 35.2393 44.2022 41.6583 42.7506 48.5797C49.4693 50.9054 57.1558 50.3286 63.7814 46.533C69.3276 43.3142 73.1243 38.4581 75.1716 33.0066C74.2968 32.7089 73.4221 32.4299 72.5474 32.2252H72.2496L72.1565 32.5229C70.314 37.0999 67.0012 41.1932 62.3297 43.9096C57.2674 46.7377 51.7212 47.5191 46.4728 46.44L46.4356 46.4214ZM59.2774 24.1317C59.2774 30.4577 61.5108 36.2068 65.3075 40.7652C65.9962 40.0768 66.6662 39.5001 67.2617 38.8116L67.4479 38.5139L67.2617 38.3279C64.1536 34.4393 62.2925 29.4715 62.2925 24.1131C62.2925 18.3639 64.4328 13.1171 67.9318 9.11683C71.4307 13.0054 73.5896 18.1592 73.6827 23.9084C74.6505 24.0945 75.6369 24.2991 76.6977 24.5968V24.1131C76.6977 16.4289 73.2918 9.50755 67.9318 4.8375C62.6833 9.50755 59.2774 16.4103 59.2774 24.1131V24.1317ZM63.5581 28.318C63.6511 29.1925 63.9489 30.0669 64.2467 30.9414L64.3397 31.2391L64.6375 31.1461C69.6068 30.4576 74.7621 31.3321 79.4336 33.9741C84.4028 36.8953 87.9018 41.3792 89.5582 46.4214C84.4028 47.5005 78.838 46.7191 73.8874 43.891C73.1988 44.6725 72.5288 45.4539 71.7471 46.1237L72.231 46.4214C78.8566 50.31 86.5431 50.7938 93.2619 48.5611C91.8102 41.6583 87.5109 35.2207 80.9039 31.4251C75.4508 28.2064 69.3276 27.2389 63.5767 28.318H63.5581ZM77.3863 24.9131C78.4472 25.2108 79.4336 25.6015 80.4014 26.0853V24.1317C80.4014 14.1962 75.5438 5.33986 67.9318 0C60.4314 5.35846 55.4621 14.2148 55.4621 24.1317C55.4621 31.3321 57.9933 37.8627 62.2739 42.9049C63.1486 42.4212 63.9303 41.8444 64.712 41.249C60.8222 36.5789 58.4772 30.6437 58.4772 24.1131C58.4772 15.9451 62.1808 8.72611 67.9132 3.87C73.7571 8.74472 77.3491 15.9451 77.3491 24.1131V24.8945L77.3863 24.9131ZM97.4494 50.9984C96.5747 41.7513 91.4193 33.0997 82.8395 28.1319C76.6047 24.541 69.6998 23.4619 63.1672 24.541C63.1672 25.6202 63.2603 26.5876 63.3533 27.5551C69.2904 26.476 75.6183 27.4621 81.2575 30.7739C88.274 34.8672 92.7407 41.6769 94.118 49.0634C87.0084 51.6868 78.838 51.2031 71.8215 47.1098C71.5237 47.0168 71.3376 46.8121 71.1329 46.7191C70.3512 47.4075 69.4765 48.0773 68.6948 48.6727C69.1787 49.0634 69.7743 49.3611 70.2582 49.7332C78.9125 54.701 88.944 54.887 97.4308 50.9984H97.4494Z" fill="#1D1D1B"/>
<path d="M9.41731 68.7112H12.0229V58.6827H9.41731V62.3852H2.58694V58.6827H0.0185547V68.7112H2.58694V64.0783H9.41731V68.7112ZM23.3014 68.7112H25.8698V58.6827H23.0036L16.4524 65.8087V58.6827H13.8468V68.7112H16.7502L23.2828 61.548V68.7112H23.3014ZM45.0953 68.7112L39.7725 63.3899L44.4812 58.6827H41.28L37.3158 62.6085V58.6827H34.7474V62.6085L30.7832 58.6827H27.582L32.3279 63.3899L27.0051 68.7112H30.2062L33.9099 64.99L34.7474 65.7901V68.6926H37.3158V65.7901L38.1533 64.99L41.8942 68.7112H45.0953ZM55.6108 68.7112H58.1791V58.6827H55.6108V62.3852H48.7804V58.6827H46.1748V68.7112H48.7804V64.0783H55.6108V68.7112ZM60.0589 68.7112H71.3002V67.0181H62.6273V64.0783H70.5371V62.3852H62.6273V60.32H71.3002V58.6641H60.0589V68.6926V68.7112ZM84.8679 68.7112L79.545 63.3899L84.2909 58.6827H81.0898L75.7669 64.0039V58.6827H73.1613V68.7112H75.7669V67.2041L77.9631 64.99L81.6853 68.7112H84.8865H84.8679ZM93.7269 64.1528H90.228L91.996 60.6549L93.7269 64.1528ZM95.9975 68.7112H98.752L93.7083 58.6827H90.2094L85.1657 68.7112H87.9202L89.3532 65.8087H94.5272L95.9603 68.7112H95.9975ZM111.687 68.7112H114.292V58.6827H110.868L107.053 66.2924L103.275 58.6827H99.8128V68.7112H102.418V61.8829L105.843 68.7112H108.262L111.687 61.8829V68.7112ZM119.801 68.7112H127.413V67.0181H119.615C119.169 67.0181 118.741 67.0181 118.741 66.4971V60.8782C118.741 60.32 119.187 60.32 119.615 60.32H127.413V58.6641H119.801C117.959 58.6641 116.135 58.6641 116.135 60.7293V66.6459C116.135 68.7112 117.978 68.7112 119.801 68.7112ZM140.981 68.7112L135.658 63.3899L140.367 58.6827H137.166L131.843 64.0039V58.6827H129.275V68.7112H131.843V67.2041L134.058 64.99L137.799 68.7112H141H140.981Z" fill="#1D1D1B"/>
<path d="M9.45459 81.511H12.0602V71.4639H9.45459V75.185H2.60558V71.4639H0V81.511H2.60558V76.8782H9.45459V81.511Z" fill="#1D1D1B"/>
<path d="M18.6301 81.511H29.8714V79.8179H21.1985V76.8782H29.1456V75.185H21.1985V73.1198H29.8714V71.4639H18.6301V81.511Z" fill="#1D1D1B"/>
<path d="M47.0123 78.1629C47.0123 78.6838 46.5657 78.6838 46.1004 78.6838H43.9601V74.2743H46.1004C46.5843 74.2743 47.0123 74.2743 47.0123 74.8324V78.1815V78.1629ZM41.3917 78.6838H39.27C38.7861 78.6838 38.3581 78.6838 38.3581 78.1629V74.8138C38.3581 74.2557 38.8047 74.2557 39.27 74.2557H41.3917V78.6652V78.6838ZM49.5807 78.3117V74.6836C49.5807 72.6184 47.7754 72.6184 45.9515 72.6184H43.9601V71.4834H41.3917V72.6184H39.4003C37.5578 72.6184 35.7524 72.6184 35.7524 74.6836V78.3117C35.7524 80.377 37.5578 80.377 39.4003 80.377H41.3917V81.5119H43.9601V80.377H45.9515C47.794 80.377 49.5807 80.377 49.5807 78.3117Z" fill="#1D1D1B"/>
<path d="M61.6782 73.1198H66.8521V71.4639H53.9172V73.1198H59.0912V81.511H61.6782V73.1198Z" fill="#1D1D1B"/>
<path d="M72.1193 81.511H83.3605V79.8179H74.6876V76.8782H82.6161V75.185H74.6876V73.1198H83.3605V71.4639H72.1193V81.511Z" fill="#1D1D1B"/>
<path d="M101.86 81.511L96.8538 76.4688L101.86 71.4639H98.6591L95.2346 74.8873L91.8101 71.4639H88.6276L93.6526 76.4688L88.6276 81.511H91.8101L95.2346 78.0875L98.6591 81.511H101.86Z" fill="#1D1D1B"/>
<path d="M116.563 81.511H119.131V71.4639H116.228L109.695 78.6085V71.4639H107.108V81.511H110.012L116.563 74.3292V81.511Z" fill="#1D1D1B"/>
<path d="M140.218 81.511V71.4639H136.794L132.978 79.0736L129.163 71.4639H125.739V81.511H128.344V74.6641L131.769 81.511H134.188L137.613 74.6641V81.511H140.218Z" fill="#1D1D1B"/>
</svg>
