<svg width="67" height="72" viewBox="0 0 67 72" fill="none" xmlns="http://www.w3.org/2000/svg">
<path d="M66.5055 48.4635V70.6254H60.9634V54.004H53.567V70.6254H48.0249V48.4635H66.5055ZM18.4806 62.4485L57.8524 23.0886C57.7494 23.0886 57.6258 23.0886 57.5228 23.0886C52.3103 23.0886 48.334 20.3699 48.0455 14.4381H53.6082C53.7731 16.539 55.1534 17.7748 57.3579 17.7748C59.5624 17.7748 60.9016 16.8479 60.9016 15.365C60.9016 13.882 59.9745 13.2435 58.0378 13.2435H56.3484V9.26842H58.0378C59.6036 9.26842 60.4689 8.50634 60.4689 7.29114C60.4689 6.07595 59.3358 5.3139 57.3373 5.3139C55.3389 5.3139 53.8143 6.34371 53.6082 8.65052H48.0455L8.24108 48.031C8.57073 48.0104 8.90037 47.9898 9.25061 47.9898C15.0194 47.9898 18.2746 51.45 18.4806 56.6404H12.9179C12.7737 54.4983 11.2903 53.3037 9.25061 53.3037C7.10793 53.3037 5.58333 54.6219 5.58333 57.0111V62.0778C5.58333 64.467 7.10793 65.7852 9.25061 65.7852C11.2903 65.7852 12.7531 64.5906 12.9179 62.4485H18.4806ZM62.694 21.997L17.3681 66.8356C15.9465 69.5132 13.1857 71.1197 9.25061 71.1197C3.29643 71.1197 0.0205914 67.4329 0.0205914 61.9336V57.1758C0.0205914 54.0864 1.05074 51.5736 3.00799 49.9671L50.0646 2.9247C51.6098 1.11221 53.9997 0 57.2755 0C63.1267 0 66.5261 2.8217 66.5261 6.67324C66.5261 8.0944 65.702 9.8863 64.1568 10.8337C65.8257 11.5546 67 13.1611 67 15.262C67 18.3926 65.3312 20.7407 62.7146 22.0177L62.694 21.997ZM18.4806 0.453125V22.6149H12.9385V5.99356H5.54212V22.6149H0V0.453125H18.4806Z" fill="#0A010A"/>
</svg>
