<svg width="145" height="31" viewBox="0 0 145 31" fill="none" xmlns="http://www.w3.org/2000/svg">
<path fill-rule="evenodd" clip-rule="evenodd" d="M28.5932 0.298195H23.134C22.7718 0.298195 22.4096 0.453381 22.1767 0.737896C22.0991 0.841356 21.9956 0.944824 21.9439 1.04828L15.5274 12.1444L8.46412 1.28106L8.3865 1.15175L8.30888 1.04828C8.1019 0.737903 7.79142 0.530989 7.48095 0.427529C7.40333 0.427529 7.24809 0.375782 7.09286 0.349917C7.01524 0.349917 6.93762 0.349917 6.86 0.349917H1.4267C0.288299 0.349917 -0.384395 1.59145 0.236553 2.54846L11.3101 19.49L6.03207 28.5687C5.48874 29.5257 6.16143 30.6896 7.24809 30.6896H12.7331C13.0436 30.6896 13.3282 30.5861 13.5611 30.3792C13.6387 30.3275 13.7939 30.1723 13.8974 29.9913C14.0009 29.8361 14.1303 29.655 14.1303 29.655L26.4199 8.36809L29.8351 2.47085C30.3784 1.51384 29.7057 0.324066 28.5932 0.324066V0.298195ZM144.426 28.4393L142.589 26.1632C142.589 26.1632 142.563 26.1115 142.537 26.0856L133.87 15.3775L142.227 5.08322L142.304 4.97976L144.297 2.52259C145.021 1.64318 144.374 0.298195 143.236 0.298195H138.242C137.854 0.298195 137.492 0.479252 137.259 0.763767L137.207 0.815488L126.936 13.5152C126.936 13.5152 126.781 13.6963 126.729 13.7997C126.703 13.8515 126.651 13.9291 126.6 14.0067C126.548 14.0843 126.522 14.1619 126.47 14.2653C126.47 14.2653 126.418 14.4205 126.393 14.4722C126.341 14.6274 126.315 14.7568 126.289 14.9119C126.289 14.9119 126.289 15.0671 126.263 15.1447V15.1965C126.263 15.1965 126.263 15.3258 126.263 15.4034C126.263 15.4551 126.263 15.5068 126.263 15.5586V15.7396C126.263 15.7396 126.263 15.8172 126.289 15.8431V15.9983H126.315V16.1276H126.341V16.2569H126.393V16.3863H126.444C126.444 16.3863 126.47 16.4897 126.496 16.5156C126.496 16.5156 126.522 16.619 126.548 16.6449C126.548 16.6449 126.6 16.7225 126.6 16.7742C126.6 16.7742 126.651 16.8518 126.677 16.9035C126.677 16.9035 126.729 16.9811 126.755 17.0329L126.807 17.0846C126.807 17.0846 126.91 17.2139 126.962 17.2915C128.152 18.7658 135.965 28.4135 137.466 30.224C137.699 30.5086 138.061 30.6637 138.423 30.6637H143.417C144.555 30.6637 145.202 29.3446 144.478 28.4393H144.426ZM113.922 14.3946C113.663 10.7477 112.137 7.20416 109.316 4.4366C103.21 -1.56409 93.4047 -1.46063 87.4022 4.64352C87.2728 4.77285 87.1434 4.90218 87.0399 5.0315C86.8071 5.26429 86.6001 5.52294 86.3931 5.78159C85.9792 6.29889 85.6169 6.81619 85.2806 7.35936V7.41108C84.9184 7.95425 84.996 8.70433 85.4617 9.1699C85.6169 9.32509 85.8239 9.45441 86.0309 9.50614H86.0826L90.8691 10.7218L91.0502 10.7735C91.4642 10.8511 91.9299 10.6959 92.2404 10.3856L92.318 10.308C92.318 10.308 92.5767 10.0234 92.6285 9.97171C95.6556 6.76445 100.701 6.63514 103.909 9.66135C104.685 10.3856 105.28 11.265 105.694 12.1702H97.001C96.2248 12.1702 95.6039 12.791 95.6039 13.567V17.3432C95.6039 18.1192 96.2248 18.74 97.001 18.74H105.72C105.332 19.5676 104.815 20.3695 104.142 21.0678C101.063 24.2234 95.992 24.2492 92.8613 21.1713C92.7061 21.0161 92.5767 20.8609 92.4215 20.7057C92.3697 20.654 92.318 20.5764 92.2663 20.5247C91.904 20.1625 91.4125 20.0332 90.9726 20.1367H90.895L86.1085 21.3265C86.1085 21.3265 86.005 21.3265 86.005 21.3523C85.7722 21.4299 85.5652 21.5593 85.3841 21.7403C84.9184 22.2059 84.8666 22.9042 85.1771 23.4474C85.41 23.8354 85.6428 24.1975 85.9015 24.5337C86.2379 24.9993 86.626 25.4649 87.0141 25.9046C87.1952 26.1115 87.4022 26.3184 87.6091 26.5253C93.7151 32.526 103.521 32.4226 109.523 26.3184C112.214 23.5767 113.689 20.0591 113.922 16.5156C113.974 15.8172 113.974 15.093 113.922 14.3688V14.3946ZM59.3819 14.9378C59.3819 14.6016 59.356 14.2653 59.3043 13.9549C59.2266 13.2566 59.1231 12.5841 58.9679 11.9375V11.8857C58.7868 11.2908 58.2435 10.8511 57.5966 10.8511C57.3638 10.8511 57.1309 10.9029 56.924 11.0063H56.8981L52.6032 13.5152C52.1633 13.7739 51.8787 14.2394 51.8787 14.7826C51.8787 14.8085 51.8787 14.8602 51.8787 14.8861C51.8787 15.093 51.8787 15.2999 51.8787 15.5068C51.8787 19.9298 48.3083 23.4733 43.884 23.4733C41.9177 23.4733 40.1066 22.7491 38.7095 21.5593C38.399 21.3006 38.1403 21.042 37.8815 20.7316C36.6655 19.3349 35.9152 17.4984 35.9152 15.5068C35.9152 11.0839 39.4857 7.54041 43.9099 7.54041C44.1428 7.54041 44.3497 7.5404 44.5826 7.56626H44.712C45.2294 7.56626 45.6951 7.30763 45.928 6.89379L48.4118 2.60018L48.4635 2.52259C48.567 2.31567 48.6188 2.10874 48.6188 1.85009C48.6188 1.20347 48.1789 0.63444 47.558 0.47925C47.1958 0.401655 46.8335 0.298204 46.4455 0.246474C45.8762 0.143014 45.2812 0.0912791 44.6861 0.039549C44.4015 0.039549 44.1169 0.039549 43.8323 0.039549C35.2684 0.039549 28.3345 6.97137 28.3345 15.5327C28.3345 19.3349 29.7057 22.8008 31.9567 25.4907C32.5517 26.215 33.2244 26.8616 33.9489 27.4565C36.6396 29.6809 40.0807 31 43.8323 31C52.3962 31 59.3301 24.0682 59.3301 15.5068C59.3301 15.3258 59.3301 15.1447 59.3301 14.9637L59.3819 14.9378ZM124.323 29.3188V1.72078C124.323 0.944829 123.702 0.324066 122.926 0.324066H118.217C117.441 0.324066 116.82 0.944829 116.82 1.72078V29.2929C116.82 30.0688 117.441 30.6896 118.217 30.6896H122.977C123.728 30.6896 124.323 30.0947 124.323 29.3446V29.3188ZM81.4773 0.298195H63.3145C62.5125 0.298195 61.8657 0.944815 61.8657 1.74663V5.44533C61.8657 6.24715 62.5125 6.89379 63.3145 6.89379H67.8682V29.3188C67.8682 30.0947 68.4891 30.7155 69.2653 30.7155H74.0518C74.7762 30.7155 75.3713 30.1206 75.3713 29.3964V6.91964H81.4773C82.2793 6.91964 82.9262 6.27302 82.9262 5.4712V1.7725C82.9262 0.970686 82.2793 0.324066 81.4773 0.324066V0.298195ZM59.2008 3.5572C59.2008 5.36775 57.726 6.84205 55.9149 6.84205C54.1038 6.84205 52.6291 5.36775 52.6291 3.5572C52.6291 1.74664 54.1038 0.272325 55.9149 0.272325C57.726 0.272325 59.2008 1.74664 59.2008 3.5572Z" fill="#1D1D1B"/>
</svg>
