<svg width="106" height="47" viewBox="0 0 106 47" fill="none" xmlns="http://www.w3.org/2000/svg">
<path d="M57.4272 11.5904H72.1521L54.4822 35.1194H39.7573L57.4272 11.5904ZM0 15.9247C0 14.9378 4.1574e-06 13.7188 0.988123 12.732C1.97624 11.7452 3.19685 11.7452 4.18497 11.7452H28.8492C32.0461 11.7452 34.371 11.7452 36.3279 12.732C38.2848 13.7188 39.7573 15.6731 41.2297 17.6274L42.7022 19.5817C43.7485 20.9749 44.5429 22.0391 44.5429 23.5097C44.5429 24.9802 43.6904 26.1219 42.7022 27.4183L36.8123 35.2548H22.0874L31.6586 22.5035C32.3948 21.5167 33.2473 20.2977 32.6467 18.9432C32.0267 17.5887 30.4379 17.5887 29.2173 17.5887H17.6699V47H5.88997V17.5887H0V15.8666V15.9247ZM75.0971 4.16014V5.88226H89.822C90.8101 5.88226 92.2826 5.88225 93.2513 6.86907C94.2394 7.8559 94.2394 9.32647 94.2394 10.2939V24.9996C94.2394 25.9864 94.2394 27.457 93.2513 28.4244C92.2632 29.4113 90.7907 29.4113 89.822 29.4113H82.7114C81.4714 29.4113 79.8826 29.4113 79.282 28.0762C78.662 26.7217 79.5339 25.5027 80.2508 24.5158L89.822 11.7645H75.0971L69.2071 19.6011C68.219 20.9168 67.3665 22.0585 67.3665 23.529C67.3665 24.9996 68.1608 26.0638 69.2071 27.457L70.6796 29.4113C72.1521 31.3849 73.6246 33.3392 75.5814 34.3067C77.5383 35.2935 79.8633 35.2935 83.0601 35.2935H89.4345C93.1157 35.2935 98.6375 35.2935 102.319 31.6171C106 27.9407 106 22.5615 106 20.5879V14.7056C106 12.7513 106 7.35281 102.319 3.6764C98.6375 -1.17639e-05 93.1157 0 89.4345 0H79.2433C78.2552 0 77.0345 -1.06106e-05 76.0464 0.986815C75.0583 1.97364 75.0583 3.19266 75.0583 4.17949L75.0971 4.16014Z" fill="#1D1D1B"/>
</svg>
