<svg width="166" height="38" viewBox="0 0 166 38" fill="none" xmlns="http://www.w3.org/2000/svg">
<path d="M13.795 13.9146C16.0058 11.7045 19.9674 8.0093 22.6557 6.52413C23.6814 5.95836 24.7249 5.48098 25.397 4.80912L25.45 4.75608C26.4228 3.78364 26.4228 2.22776 25.45 1.25533C24.495 0.282898 22.9209 0.282898 21.9482 1.25533C21.9305 1.27301 21.9128 1.29069 21.8952 1.30837C21.2231 1.98023 20.7633 3.04106 20.1796 4.06654C18.694 6.75398 15.0153 10.7321 12.8046 12.9422C10.5939 15.1523 6.63222 18.8475 3.94396 20.3327C2.91818 20.8984 1.85702 21.3758 1.18496 22.0477C1.16727 22.0477 1.14958 22.083 1.1319 22.1007C0.159173 23.0732 0.159173 24.629 1.1319 25.6015C2.10462 26.5739 3.66098 26.5739 4.63371 25.6015C4.6514 25.5838 4.66908 25.5661 4.68677 25.5484C5.35883 24.8766 5.81867 23.8158 6.4023 22.7903C7.88792 20.1028 11.5666 16.1247 13.7773 13.9146H13.795ZM64.1999 18.5292L61.7946 7.30208H56.082L54.3311 16.4606L52.5979 7.30208H46.85L44.427 18.5292H47.805L49.5736 9.51216L50.9531 18.5292H57.4615L58.8587 9.51216L60.6273 18.5292H64.1822H64.1999ZM166 17.8927V14.4981C164.497 15.1699 163.188 15.5059 162.127 15.5059C160.34 15.5059 158.908 14.5334 158.908 12.9245C158.908 11.3156 160.394 10.3255 162.144 10.3255C163.206 10.3255 164.532 10.6614 166 11.5631V8.16843C164.939 7.49657 163.4 7.14295 162.162 7.14295C158.501 7.14295 155.548 9.33535 155.548 12.9245C155.548 16.5137 158.483 18.6884 161.897 18.6884C163.347 18.6884 164.638 18.4585 166 17.8927ZM75.5719 10.1663V7.2844H66.0746V18.5116H75.5719V15.6296H69.3111V14.3036H75.5012V11.4217H69.3111V10.1487H75.5719V10.1663ZM87.4038 7.2844H76.7746V10.3608H80.4709V18.5116H83.7074V10.3608H87.4038V7.2844ZM96.3529 18.5116H99.8901L95.5924 7.2844H90.8879L86.6079 18.5116H89.9859L90.658 16.6021H95.6808L96.3529 18.5116ZM91.6484 13.7201L93.1517 9.47679L94.655 13.7201H91.6484ZM112.093 8.50436H110.13V7.26672H106.894V8.50436H104.913C102.225 8.50436 100.385 10.2724 100.385 12.8891C100.385 15.5059 102.242 17.2739 104.913 17.2739H106.894V18.5116H110.13V17.2739H112.093C114.782 17.2739 116.621 15.5059 116.621 12.8891C116.621 10.2724 114.764 8.50436 112.093 8.50436ZM105.461 14.4097C104.435 14.4097 103.728 13.7378 103.728 12.8891C103.728 12.0405 104.418 11.3863 105.461 11.3863H106.876V14.4274H105.461V14.4097ZM111.545 14.4097H110.13V11.3686H111.545C112.571 11.3686 113.278 12.0405 113.278 12.8715C113.278 13.7025 112.589 14.392 111.545 14.392V14.4097ZM124.297 7.26672H118.319V18.4939H121.555V15.718H124.297C126.879 15.718 128.683 14.003 128.683 11.4747C128.683 8.94638 126.896 7.24904 124.297 7.24904V7.26672ZM123.748 12.8538H121.555V10.131H123.748C124.686 10.131 125.322 10.7321 125.322 11.4924C125.322 12.2526 124.686 12.8715 123.748 12.8715V12.8538ZM138.941 18.4939H142.478L138.18 7.26672H133.476L129.196 18.4939H132.574L133.246 16.5844H138.268L138.941 18.4939ZM134.236 13.7024L135.739 9.45912L137.243 13.7024H134.236ZM155.618 18.4939L150.861 12.6239L155.247 7.26672H151.409L147.094 12.5709V7.26672H143.857V18.4939H147.094V13.1897L151.391 18.4939H155.601H155.618ZM54.3488 25.7606H45.1521V37.0055H48.3887V28.8547H54.3488V25.7783V25.7606ZM61.6354 25.7606H55.6576V37.0055H58.8941V34.2296H61.6354C64.2176 34.2296 66.0215 32.5146 66.0215 29.9863C66.0215 27.4579 64.2352 25.7606 61.6354 25.7606ZM61.0872 31.3477H58.8941V28.6249H61.0872C62.0245 28.6249 62.6612 29.226 62.6612 29.9863C62.6612 30.7465 62.0245 31.3654 61.0872 31.3654V31.3477ZM75.6073 25.7606L72.866 30.1454L70.0893 25.7606H66.2514L70.9913 33.1511L68.586 36.9878H72.1408L79.1622 25.7429H75.625L75.6073 25.7606ZM90.7464 25.7606H79.8342V37.0055H83.0707V28.8547H87.5099V37.0055H90.7464V25.7606ZM104.258 25.7606H93.3463V37.0055H96.5828V28.8547H101.022V37.0055H104.258V25.7606ZM32.772 27.7585C32.3122 28.5895 31.5163 29.7564 30.5789 30.6758C29.6593 31.6129 28.492 32.4085 27.6608 32.8682C27.1302 33.1688 26.5819 33.3986 26.2459 33.7522L26.2105 33.7876C25.7153 34.2826 25.7153 35.096 26.2105 35.591C26.7057 36.0861 27.5193 36.0861 28.0145 35.591L28.0499 35.5556C28.4036 35.202 28.6335 34.6716 28.9342 34.1412C29.394 33.3102 30.1899 32.1433 31.1272 31.2062C32.0469 30.2868 33.2141 29.4735 34.0454 29.0138C34.576 28.7133 35.1242 28.4834 35.4603 28.1298L35.4956 28.0944C35.9908 27.5994 35.9908 26.7861 35.4956 26.291C35.0004 25.796 34.1869 25.796 33.6917 26.291L33.6563 26.3264C33.3026 26.68 33.0727 27.2104 32.772 27.7408V27.7585ZM32.0292 21.8886C31.1095 23.5505 29.2525 25.8844 27.537 27.6171C25.8214 29.3498 23.4692 31.2062 21.8244 32.1256C20.9932 32.5853 20.1443 32.9743 19.596 33.5224L19.5429 33.5754C18.7648 34.3534 18.7648 35.6264 19.5429 36.422C20.3211 37.1999 21.5945 37.1999 22.3727 36.422L22.4081 36.369C22.9563 35.8209 23.3277 34.9722 23.7876 34.1235C24.7072 32.4615 26.5642 30.11 28.2798 28.395C30.013 26.6623 32.3475 24.8059 33.9923 23.8865C34.8236 23.4268 35.6725 23.0378 36.2208 22.4897C36.2208 22.4897 36.2561 22.4543 36.2738 22.4543C37.052 21.6764 37.052 20.4034 36.2738 19.6078C35.4956 18.8298 34.2222 18.8298 33.4441 19.6078L33.391 19.6608C32.8427 20.2089 32.4713 21.0576 32.0115 21.9062L32.0292 21.8886ZM23.0271 23.1085C20.8163 25.3186 16.8547 29.0138 14.1664 30.499C13.1406 31.0648 12.0972 31.5422 11.4251 32.214C11.4074 32.2317 11.3897 32.2494 11.372 32.2671C10.3993 33.2395 10.3993 34.7954 11.372 35.7678C12.3271 36.7402 13.9011 36.7402 14.8739 35.7678C14.8915 35.7501 14.9092 35.7325 14.9269 35.7148C15.599 35.0429 16.0588 33.9821 16.6424 32.9566C18.1281 30.2692 21.8067 26.291 24.0175 24.0809C26.2282 21.8709 30.1899 18.1756 32.8781 16.6905C33.9039 16.1247 34.9651 15.6473 35.6371 14.9754C35.6548 14.9754 35.6725 14.9401 35.6902 14.9224C36.6629 13.95 36.6629 12.3941 35.6902 11.4217C34.7175 10.4492 33.1611 10.4492 32.1884 11.4217C32.1707 11.4393 32.153 11.457 32.1353 11.4747C31.4632 12.1466 31.0034 13.2074 30.4198 14.2329C28.9342 16.9203 25.2555 20.8985 23.0447 23.1085H23.0271ZM17.9512 18.0165C15.2983 20.6686 10.4347 25.0003 7.21585 26.8038C5.97784 27.4933 4.72214 28.0414 3.90859 28.8547C3.8909 28.8724 3.85553 28.9077 3.83784 28.9254C2.67057 30.0923 2.67057 31.9665 3.83784 33.1334C4.98743 34.3003 6.87982 34.3003 8.02941 33.1334C8.04709 33.1157 8.06478 33.0804 8.10015 33.0627C8.9137 32.2494 9.46196 30.9941 10.1517 29.7564C11.938 26.5385 16.271 21.6587 18.9239 19.0066C21.5768 16.3545 26.4404 12.0051 29.6593 10.2194C30.8973 9.52984 32.153 8.98174 32.9665 8.16843C32.9842 8.15075 33.0196 8.13307 33.0373 8.0977C34.2046 6.93079 34.2046 5.05665 33.0373 3.88973C31.8877 2.72281 29.9953 2.72281 28.8457 3.88973C28.828 3.90741 28.7927 3.94278 28.775 3.96046C27.9614 4.77376 27.4132 6.02908 26.7234 7.26672C24.9371 10.4846 20.6041 15.3644 17.9512 18.0165ZM4.08545 9.24695C4.54528 8.41596 5.34115 7.24904 6.2785 6.32965C7.19817 5.39258 8.36544 4.59695 9.19668 4.13726C9.72725 3.83669 10.2755 3.60684 10.6115 3.25323L10.6469 3.21788C11.1421 2.72282 11.1421 1.9095 10.6469 1.41445C10.1517 0.919392 9.33816 0.919392 8.84296 1.41445L8.80759 1.44982C8.45387 1.80343 8.22395 2.33384 7.92329 2.86426C7.46346 3.69524 6.66759 4.86217 5.73024 5.79924C4.81057 6.73631 3.6433 7.53193 2.81206 7.99163C2.28148 8.2922 1.73322 8.52204 1.39719 8.87566L1.36182 8.91101C0.86661 9.40607 0.86661 10.2194 1.36182 10.7144C1.85702 11.2095 2.67057 11.2095 3.16578 10.7144L3.20115 10.6791C3.55487 10.3255 3.78479 9.79505 4.08545 9.26463V9.24695ZM4.82825 15.1169C5.74792 13.4549 7.60494 11.1034 9.32048 9.38839C11.0537 7.6557 13.3882 5.79923 15.033 4.87984C15.8643 4.42015 16.7132 4.03117 17.2615 3.48307L17.3145 3.43003C18.0927 2.65209 18.0927 1.37909 17.3145 0.583459C16.5363 -0.194486 15.2629 -0.194486 14.4848 0.583459L14.4494 0.636499C13.9011 1.1846 13.5297 2.03327 13.0699 2.88194C12.1502 4.54391 10.2932 6.89543 8.57767 8.61044C6.86213 10.3431 4.50991 12.1996 2.86512 13.119C2.03388 13.5787 1.18496 13.9677 0.636693 14.5158C0.636693 14.5158 0.601321 14.5511 0.583635 14.5688C-0.194545 15.3467 -0.194545 16.6198 0.583635 17.4154C1.36182 18.1933 2.6352 18.1933 3.41338 17.4154L3.44875 17.3623C3.99702 16.8142 4.36842 15.9656 4.82825 15.1169Z" fill="#1D1D1B"/>
</svg>
