<svg width="107" height="68" viewBox="0 0 107 68" fill="none" xmlns="http://www.w3.org/2000/svg">
<path fill-rule="evenodd" clip-rule="evenodd" d="M53.4909 10.2766L53.782 10.2039C39.2994 14.6965 27.8553 22.3903 27.6188 28.047C27.4732 31.3391 31.1848 33.2489 37.1343 33.6309L32.9315 37.6688C24.8169 37.7779 19.5587 35.7953 19.5587 31.903C19.5587 25.2823 34.7509 15.6059 53.4727 10.2948L53.4909 10.2766ZM55.6742 31.2845L55.9653 31.2118C58.2214 30.6116 60.4229 29.9204 62.5334 29.1565L63.9344 30.7571C60.6412 32.0667 57.1479 33.2671 53.5091 34.2857C51.2712 34.9223 49.0697 35.4679 46.9592 35.9227L55.6924 31.2845H55.6742ZM72.1945 24.9549C79.9089 20.917 85.0578 16.2425 85.2216 12.4774C85.3489 9.34899 82.0012 7.45736 76.5429 6.96627C83.2202 7.25729 87.4049 9.22167 87.4049 12.6957C87.4049 16.9155 81.237 22.3721 71.9398 27.1557L72.1945 24.9913V24.9549ZM26.9274 45.1261L73.9412 0L69.6837 35.4679L61.9148 26.5737L26.9274 45.1261ZM6.14963 60.1864C6.14963 59.1314 5.3127 58.5858 4.27563 58.5858H2.12872V61.8052H4.27563C5.3127 61.8052 6.14963 61.1322 6.14963 60.2046V60.1864ZM8.29654 60.1864C8.29654 62.0962 6.93198 63.9332 4.54855 63.9332H2.14691V67.6801H0V56.4395H4.02091C6.95018 56.4395 8.29654 58.0037 8.29654 60.1864ZM19.3404 62.0598C19.3404 59.9863 17.6666 58.3129 15.5924 58.3129C13.5183 58.3129 11.8444 59.9863 11.8444 62.0598C11.8444 64.1333 13.5183 65.8067 15.5924 65.8067C17.6666 65.8067 19.3404 64.1333 19.3404 62.0598ZM21.4873 62.0598C21.4873 65.2974 18.8492 67.9529 15.5924 67.9529C12.3357 67.9529 9.6975 65.3156 9.6975 62.0598C9.6975 58.804 12.3357 56.1667 15.5924 56.1667C18.8492 56.1667 21.4873 58.804 21.4873 62.0598ZM31.7852 64.6608L32.604 66.607C31.6579 67.48 30.2205 67.9711 28.9651 67.9711C25.672 67.9711 22.9792 65.3338 22.9792 62.078C22.9792 58.8222 25.672 56.1849 28.9651 56.1849C30.2205 56.1849 31.6579 56.6578 32.604 57.5308L31.7852 59.477C31.0757 58.7677 30.075 58.3311 28.9833 58.3311C26.8364 58.3311 25.108 60.0045 25.108 62.078C25.108 64.1515 26.8546 65.8249 28.9833 65.8249C30.0932 65.8249 31.0757 65.3883 31.7852 64.679V64.6608ZM44.4848 67.6801H41.7738L37.5164 62.7692V67.6801H35.3695V56.4395H37.5164V61.0958L41.5009 56.4395H44.2119L39.3904 61.8052L44.4848 67.6801ZM54.5644 62.0598C54.5644 59.9863 52.8905 58.3129 50.8164 58.3129C48.7422 58.3129 47.0684 59.9863 47.0684 62.0598C47.0684 64.1333 48.7422 65.8067 50.8164 65.8067C52.8905 65.8067 54.5644 64.1333 54.5644 62.0598ZM56.7113 62.0598C56.7113 65.2974 54.0731 67.9529 50.8164 67.9529C47.5596 67.9529 44.9214 65.3156 44.9214 62.0598C44.9214 58.804 47.5596 56.1667 50.8164 56.1667C54.0731 56.1667 56.7113 58.804 56.7113 62.0598ZM67.0092 64.6608L67.8279 66.607C66.8818 67.48 65.4263 67.9711 64.1891 67.9711C60.8959 67.9711 58.2032 65.3338 58.2032 62.078C58.2032 58.8222 60.8959 56.1849 64.1891 56.1849C65.4445 56.1849 66.8818 56.6578 67.8279 57.5308L67.0092 59.477C66.2814 58.7677 65.2989 58.3311 64.2073 58.3311C62.0604 58.3311 60.3319 60.0045 60.3319 62.078C60.3319 64.1515 62.0786 65.8249 64.2073 65.8249C65.3171 65.8249 66.2996 65.3883 67.0092 64.679V64.6608ZM82.9473 67.6801H80.673L79.7451 60.3137L76.7976 67.6801H75.7242L72.7767 60.3137L71.8306 67.6801H69.5564L71.1574 56.4395H73.3044L76.2518 63.6604L79.1993 56.4395H81.3462L82.9473 67.6801ZM93.7364 62.0598C93.7364 59.9863 92.0626 58.3129 89.9884 58.3129C87.9143 58.3129 86.2404 59.9863 86.2404 62.0598C86.2404 64.1333 87.9143 65.8067 89.9884 65.8067C92.0626 65.8067 93.7364 64.1333 93.7364 62.0598ZM95.8834 62.0598C95.8834 65.2974 93.2452 67.9529 89.9884 67.9529C86.7317 67.9529 84.0935 65.3156 84.0935 62.0598C84.0935 58.804 86.7317 56.1667 89.9884 56.1667C93.2452 56.1667 95.8834 58.804 95.8834 62.0598ZM106.181 64.6608L107 66.607C106.054 67.48 104.598 67.9711 103.361 67.9711C100.068 67.9711 97.3753 65.3338 97.3753 62.078C97.3753 58.8222 100.068 56.1849 103.361 56.1849C104.617 56.1849 106.054 56.6578 107 57.5308L106.181 59.477C105.453 58.7677 104.471 58.3311 103.379 58.3311C101.232 58.3311 99.504 60.0045 99.504 62.078C99.504 64.1515 101.251 65.8249 103.379 65.8249C104.489 65.8249 105.472 65.3883 106.181 64.679V64.6608Z" fill="#1D1D1B"/>
</svg>
